<svg xmlns="http://www.w3.org/2000/svg" viewBox="0 0 64 64">
  <defs>
    <linearGradient id="grad1" x1="0%" y1="0%" x2="100%" y2="100%">
      <stop offset="0%" style="stop-color:#6366f1;stop-opacity:1" />
      <stop offset="100%" style="stop-color:#8b5cf6;stop-opacity:1" />
    </linearGradient>
  </defs>
  
  <!-- Fondo con efecto gaming -->
  <rect width="64" height="64" rx="12" fill="url(#grad1)"/>
  
  <!-- Efecto de brillo -->
  <rect x="4" y="4" width="56" height="28" rx="8" fill="rgba(255,255,255,0.1)"/>
  
  <!-- Letra G -->
  <path d="M 16 22 L 16 42 Q 16 46 20 46 L 26 46 L 26 42 L 20 42 L 20 22 L 28 22 L 28 30 L 24 30 L 24 34 L 32 34 L 32 18 L 20 18 Q 16 18 16 22 Z" fill="white" stroke="white" stroke-width="1"/>
  
  <!-- Letra Z -->
  <path d="M 36 18 L 36 22 L 48 34 L 36 34 L 36 38 L 54 38 L 54 34 L 42 22 L 54 22 L 54 18 Z" fill="white" stroke="white" stroke-width="1"/>
  
  <!-- Detalle gaming inferior -->
  <rect x="8" y="52" width="12" height="4" rx="2" fill="rgba(255,255,255,0.3)"/>
  <rect x="24" y="52" width="16" height="4" rx="2" fill="rgba(255,255,255,0.5)"/>
  <rect x="44" y="52" width="12" height="4" rx="2" fill="rgba(255,255,255,0.3)"/>
</svg>

