<svg xmlns="http://www.w3.org/2000/svg" viewBox="0 0 192 192">
  <defs>
    <linearGradient id="grad1" x1="0%" y1="0%" x2="100%" y2="100%">
      <stop offset="0%" style="stop-color:#6366f1;stop-opacity:1" />
      <stop offset="50%" style="stop-color:#8b5cf6;stop-opacity:1" />
      <stop offset="100%" style="stop-color:#a855f7;stop-opacity:1" />
    </linearGradient>
    <filter id="shadow">
      <feDropShadow dx="0" dy="4" stdDeviation="4" flood-color="#000000" flood-opacity="0.3"/>
    </filter>
  </defs>
  
  <!-- Fondo circular con gradiente -->
  <circle cx="96" cy="96" r="92" fill="url(#grad1)" filter="url(#shadow)"/>
  
  <!-- Círculo interior decorativo -->
  <circle cx="96" cy="96" r="80" fill="none" stroke="rgba(255,255,255,0.2)" stroke-width="2"/>
  
  <!-- Efecto de brillo superior -->
  <ellipse cx="96" cy="60" rx="60" ry="30" fill="rgba(255,255,255,0.15)"/>
  
  <!-- Letra G -->
  <path d="M 50 70 L 50 122 Q 50 130 58 130 L 78 130 L 78 122 L 58 122 L 58 70 L 86 70 L 86 94 L 70 94 L 70 102 L 94 102 L 94 62 L 58 62 Q 50 62 50 70 Z" 
        fill="white" 
        stroke="white" 
        stroke-width="2"
        filter="url(#shadow)"/>
  
  <!-- Letra Z -->
  <path d="M 106 62 L 106 70 L 134 110 L 106 110 L 106 118 L 142 118 L 142 110 L 114 70 L 142 70 L 142 62 Z" 
        fill="white" 
        stroke="white" 
        stroke-width="2"
        filter="url(#shadow)"/>
  
  <!-- Detalles decorativos gaming -->
  <rect x="30" y="150" width="28" height="8" rx="4" fill="rgba(255,255,255,0.3)"/>
  <rect x="70" y="150" width="52" height="8" rx="4" fill="rgba(255,255,255,0.5)"/>
  <rect x="134" y="150" width="28" height="8" rx="4" fill="rgba(255,255,255,0.3)"/>
  
  <!-- Puntos decorativos -->
  <circle cx="40" cy="40" r="3" fill="rgba(255,255,255,0.4)"/>
  <circle cx="152" cy="40" r="3" fill="rgba(255,255,255,0.4)"/>
  <circle cx="40" cy="152" r="3" fill="rgba(255,255,255,0.4)"/>
  <circle cx="152" cy="152" r="3" fill="rgba(255,255,255,0.4)"/>
</svg>

